<svg xmlns="http://www.w3.org/2000/svg" width="24" height="22" viewBox="0 0 24 22">
  <defs>
    <style>
      .cls-1 {
        fill: #cdcdcd;
        fill-rule: evenodd;
      }
    </style>
  </defs>
  <path id="Фигура_25" data-name="Фигура 25" class="cls-1" d="M1506.4,1682h19.2a2.412,2.412,0,0,1,2.4,2.36v12.96a2.412,2.412,0,0,1-2.4,2.36h-11.42l-3.88,4.19a0.434,0.434,0,0,1-.3.13,0.319,0.319,0,0,1-.14-0.03,0.375,0.375,0,0,1-.26-0.36v-3.93h-3.2a2.412,2.412,0,0,1-2.4-2.36v-12.96A2.412,2.412,0,0,1,1506.4,1682Z" transform="translate(-1504 -1682)"/>
</svg>
