<?xml version="1.0" encoding="utf-8"?>
<!-- Generator: Adobe Illustrator 22.1.0, SVG Export Plug-In . SVG Version: 6.00 Build 0)  -->
<svg version="1.1" id="Capa_1" xmlns="http://www.w3.org/2000/svg" xmlns:xlink="http://www.w3.org/1999/xlink" x="0px" y="0px"
	 viewBox="0 0 279.7 279.7" style="enable-background:new 0 0 279.7 279.7;" xml:space="preserve">
<g>
	<path fill="#929c5b" d="M143.2,55.5c-41.1,0-74.5,33.4-74.5,74.5c0,16.8,5.5,32.7,15.9,45.9c2,2.5,4.2,5,6.2,7.4
		c6.2,7.2,12.1,14,14.2,21.7c0,0.2,0.4,1.8,0.4,7.2l0,0.8c-0.1,4.4-0.1,10.5,4.4,15.1c3.1,3.1,7.4,4.6,13.2,4.6h40.3
		c6.3,0,10.8-1.5,13.8-4.7c4.1-4.3,3.8-9.8,3.6-13.4c0-0.6-0.1-1.3-0.1-1.9c-0.1-5.5,0.3-7,0.4-7.1c2.1-7.7,9-15.7,15.1-22.9
		c2-2.4,3.9-4.6,5.7-6.9c10.4-13.2,15.9-29.1,15.9-46C217.7,88.9,184.3,55.5,143.2,55.5z M190,166.6c-1.6,2-3.4,4.2-5.4,6.4
		c-7.1,8.3-15.1,17.7-18.1,28.6c-0.4,1.5-1,4.4-0.9,11.3c0,0.8,0,1.7,0.1,2.5c0,0.7,0.1,1.5,0.1,2.2c-0.5,0.1-1.3,0.2-2.5,0.2H123
		c-1.3,0-2-0.1-2.4-0.2c-0.2-1-0.2-3-0.2-4.3l0-0.8c0.1-6.9-0.5-9.8-0.9-11.3c-3-10.9-10.6-19.7-17.3-27.5c-2.1-2.4-4-4.7-5.8-6.9
		C88.2,156,83.8,143.4,83.8,130c0-32.8,26.7-59.5,59.5-59.5c32.8,0,59.5,26.7,59.5,59.5C202.7,143.4,198.3,156.1,190,166.6z"/>
	<path fill="#929c5b" d="M161.8,239.6h-37c-8,0-14.5,6.5-14.5,14.5v11.1c0,8,6.5,14.5,14.5,14.5h37c8,0,14.5-6.5,14.5-14.5v-11.1
		C176.3,246.1,169.8,239.6,161.8,239.6z M161.3,264.7h-36v-10.1h36V264.7z"/>
	<path fill="#804284" d="M143.2,45.8c4.1,0,7.5-3.4,7.5-7.5V7.5c0-4.1-3.4-7.5-7.5-7.5s-7.5,3.4-7.5,7.5v30.8
		C135.7,42.4,139.1,45.8,143.2,45.8z"/>
	<path fill="#804284" d="M241.9,34.6c-2.9-3-7.6-3.1-10.6-0.2l-22.8,21.7c-3,2.9-3.1,7.6-0.2,10.6c1.5,1.5,3.4,2.3,5.4,2.3
		c1.9,0,3.7-0.7,5.2-2.1l22.8-21.7C244.7,42.3,244.8,37.6,241.9,34.6z"/>
	<path fill="#804284" d="M264.3,109.6C264.3,109.6,264.3,109.6,264.3,109.6l-29.3,0c-4.1,0-7.5,3.4-7.5,7.5c0,4.1,3.4,7.5,7.5,7.5
		c0,0,0,0,0,0l29.3,0c4.1,0,7.5-3.4,7.5-7.5C271.8,112.9,268.4,109.6,264.3,109.6z"/>
	<path fill="#804284" d="M74.4,64.7c2.9-3,2.7-7.7-0.2-10.6L51.4,32.3c-3-2.9-7.7-2.7-10.6,0.2c-2.9,3-2.7,7.7,0.2,10.6l22.8,21.7
		c1.5,1.4,3.3,2.1,5.2,2.1C70.9,67,72.9,66.2,74.4,64.7z"/>
	<path fill="#804284" d="M44.7,109.6l-29.3,0c0,0,0,0,0,0c-4.1,0-7.5,3.4-7.5,7.5c0,4.1,3.3,7.5,7.5,7.5l29.3,0c0,0,0,0,0,0
		c4.1,0,7.5-3.4,7.5-7.5C52.2,113,48.9,109.7,44.7,109.6z"/>
</g>
</svg>
