<?xml version="1.0" encoding="utf-8"?>
<!-- Generator: Adobe Illustrator 22.1.0, SVG Export Plug-In . SVG Version: 6.00 Build 0)  -->
<svg version="1.1" id="Bold" xmlns="http://www.w3.org/2000/svg" xmlns:xlink="http://www.w3.org/1999/xlink" x="0px" y="0px"
	 viewBox="0 0 512 512" style="enable-background:new 0 0 512 512;" xml:space="preserve" fill="#565e2b">
<path d="M100.7,274.8c-13.1,25.7,1.8,38,35.6,59c28.8,17.8,68.6,24.3,94.1,26.9c-10.5,10.1,37.5-36.1-100.7,96.9
	c-29.3,28.1,17.9,73.2,47.2,45.7l79.3-76.5c30.4,29.2,59.5,57.2,79.3,76.6c29.3,27.6,76.5-17.1,47.5-45.7
	c-2.2-2.1-107.5-103.1-101-96.9c25.9-2.6,65.1-9.5,93.5-26.9l0,0c33.9-21.1,48.7-33.4,35.8-59.1c-7.8-14.6-28.8-26.8-56.7-5.7
	c0,0-37.7,28.9-98.6,28.9c-60.9,0-98.6-28.9-98.6-28.9C129.5,247.9,108.4,260.2,100.7,274.8L100.7,274.8z"/>
<path d="M256,259c74.2,0,134.8-58,134.8-129.4C390.8,58,330.2,0,256,0c-74.2,0-134.8,58-134.8,129.7C121.2,201,181.8,259,256,259z
	 M256,65.7c36.5,0,66.2,28.6,66.2,64c0,35.1-29.7,63.7-66.2,63.7s-66.2-28.6-66.2-63.7C189.8,94.3,219.5,65.7,256,65.7L256,65.7z"/>
</svg>
