<svg xmlns="http://www.w3.org/2000/svg" xmlns:xlink="http://www.w3.org/1999/xlink" width="20" height="20" viewBox="0 0 20 20">
  <defs>
    <style>
      .cls-1 {
        fill-rule: evenodd;
        filter: url(#filter);
      }
    </style>
    <filter id="filter" x="845" y="30" width="20" height="20" filterUnits="userSpaceOnUse">
      <feFlood result="flood" flood-color="#647216"/>
      <feComposite result="composite" operator="in" in2="SourceGraphic"/>
      <feBlend result="blend" in2="SourceGraphic"/>
    </filter>
  </defs>
  <path id="Forma_1" data-name="Forma 1" class="cls-1" d="M864.99,45.784a0.97,0.97,0,0,1-.3.848l-2.816,2.8a1.587,1.587,0,0,1-.5.36,2.032,2.032,0,0,1-.6.191c-0.014,0-.057,0-0.127.011a2.724,2.724,0,0,1-.275.011,9.346,9.346,0,0,1-3.5-.816,18.4,18.4,0,0,1-2.954-1.621A22.043,22.043,0,0,1,850.4,44.6a23.25,23.25,0,0,1-2.456-2.8,19.9,19.9,0,0,1-1.566-2.469,13.264,13.264,0,0,1-.89-2.055,11.048,11.048,0,0,1-.4-1.589A5.239,5.239,0,0,1,845,34.639q0.021-.381.021-0.423a2.1,2.1,0,0,1,.191-0.605,1.6,1.6,0,0,1,.36-0.5l2.816-2.818a0.932,0.932,0,0,1,.677-0.3,0.786,0.786,0,0,1,.487.16,1.454,1.454,0,0,1,.36.391l2.266,4.3a1.032,1.032,0,0,1,.106.741,1.33,1.33,0,0,1-.36.679l-1.038,1.037a0.354,0.354,0,0,0-.074.138,0.534,0.534,0,0,0-.032.159,3.825,3.825,0,0,0,.382,1.017,9.206,9.206,0,0,0,.783,1.24,13.759,13.759,0,0,0,1.5,1.684,14.03,14.03,0,0,0,1.694,1.515,9.92,9.92,0,0,0,1.238.795,3.345,3.345,0,0,0,.763.307l0.264,0.053a0.488,0.488,0,0,0,.138-0.032,0.358,0.358,0,0,0,.138-0.074l1.206-1.229a1.3,1.3,0,0,1,.89-0.339,1.1,1.1,0,0,1,.571.128h0.021l4.087,2.415A1.064,1.064,0,0,1,864.99,45.784Z" transform="translate(-845 -30)"/>
</svg>
