<?xml version="1.0" encoding="UTF-8"?>
<!DOCTYPE svg PUBLIC "-//W3C//DTD SVG 1.1//EN" "http://www.w3.org/Graphics/SVG/1.1/DTD/svg11.dtd">
<svg xmlns="http://www.w3.org/2000/svg">
	<defs>
		<filter id="map-label-a" width="18" height="24" x="845" y="74" filterUnits="userSpaceOnUse">
			<feFlood flood-color="#647216" result="flood"/>
			<feComposite in2="SourceGraphic" operator="in" result="composite"/>
			<feBlend in2="SourceGraphic" result="blend"/>
		</filter>

		<filter id="phone-a" width="20" height="20" x="845" y="30" filterUnits="userSpaceOnUse">
			<feFlood flood-color="#647216" result="flood"/>
			<feComposite in2="SourceGraphic" operator="in" result="composite"/>
			<feBlend in2="SourceGraphic" result="blend"/>
		</filter>
	</defs>
<symbol id="icon-email" viewBox="0 0 512 512">
	<path d="M467 61H45c-6.927 0-13.412 1.703-19.279 4.51L255 294.789l51.389-49.387.005-.007.005-.004L486.286 65.514C480.418 62.705 473.929 61 467 61zM507.496 86.728L338.213 256.002 507.49 425.279c2.807-5.867 4.51-12.352 4.51-19.279V106c0-6.923-1.699-13.407-4.504-19.272zM4.51 86.721C1.703 92.588 0 99.073 0 106v300c0 6.923 1.701 13.409 4.506 19.274L173.789 256 4.51 86.721z"/>
	<path d="M317.002 277.213l-51.396 49.393c-2.93 2.93-6.768 4.395-10.605 4.395s-7.676-1.465-10.605-4.395L195 277.211 25.714 446.486C31.582 449.295 38.071 451 45 451h422c6.927 0 13.412-1.703 19.279-4.51L317.002 277.213z"/>
</symbol>
<symbol id="icon-email2" viewBox="0 0 512 512">
	<path d="M467 61H45c-6.927 0-13.412 1.703-19.279 4.51L255 294.789l51.389-49.387.005-.007.005-.004L486.286 65.514C480.418 62.705 473.929 61 467 61zM507.496 86.728L338.213 256.002 507.49 425.279c2.807-5.867 4.51-12.352 4.51-19.279V106c0-6.923-1.699-13.407-4.504-19.272zM4.51 86.721C1.703 92.588 0 99.073 0 106v300c0 6.923 1.701 13.409 4.506 19.274L173.789 256 4.51 86.721z"/>
	<path d="M317.002 277.213l-51.396 49.393c-2.93 2.93-6.768 4.395-10.605 4.395s-7.676-1.465-10.605-4.395L195 277.211 25.714 446.486C31.582 449.295 38.071 451 45 451h422c6.927 0 13.412-1.703 19.279-4.51L317.002 277.213z"/>
</symbol>
<symbol id="icon-fb" viewBox="0 0 512 512">
	<path d="M341.3 85H388V3.6C379.9 2.5 352.2 0 319.9 0c-67.4 0-113.6 42.4-113.6 120.3V192H132v91h74.4v229h91.2V283H369l11.3-91h-82.7v-62.7c-.1-26.3 7-44.3 43.7-44.3z"/>
</symbol>
<symbol id="icon-fb2" viewBox="0 0 512 512">
	<path d="M341.3 85H388V3.6C379.9 2.5 352.2 0 319.9 0c-67.4 0-113.6 42.4-113.6 120.3V192H132v91h74.4v229h91.2V283H369l11.3-91h-82.7v-62.7c-.1-26.3 7-44.3 43.7-44.3z"/>
</symbol>
<symbol id="icon-idea-2" viewBox="0 0 279.7 279.7">
	<path fill="#929c5b" d="M143.2 55.5c-41.1 0-74.5 33.4-74.5 74.5 0 16.8 5.5 32.7 15.9 45.9 2 2.5 4.2 5 6.2 7.4 6.2 7.2 12.1 14 14.2 21.7 0 .2.4 1.8.4 7.2v.8c-.1 4.4-.1 10.5 4.4 15.1 3.1 3.1 7.4 4.6 13.2 4.6h40.3c6.3 0 10.8-1.5 13.8-4.7 4.1-4.3 3.8-9.8 3.6-13.4 0-.6-.1-1.3-.1-1.9-.1-5.5.3-7 .4-7.1 2.1-7.7 9-15.7 15.1-22.9 2-2.4 3.9-4.6 5.7-6.9 10.4-13.2 15.9-29.1 15.9-46 0-40.9-33.4-74.3-74.5-74.3zM190 166.6c-1.6 2-3.4 4.2-5.4 6.4-7.1 8.3-15.1 17.7-18.1 28.6-.4 1.5-1 4.4-.9 11.3 0 .8 0 1.7.1 2.5 0 .7.1 1.5.1 2.2-.5.1-1.3.2-2.5.2H123c-1.3 0-2-.1-2.4-.2-.2-1-.2-3-.2-4.3v-.8c.1-6.9-.5-9.8-.9-11.3-3-10.9-10.6-19.7-17.3-27.5-2.1-2.4-4-4.7-5.8-6.9-8.2-10.8-12.6-23.4-12.6-36.8 0-32.8 26.7-59.5 59.5-59.5s59.5 26.7 59.5 59.5c-.1 13.4-4.5 26.1-12.8 36.6zM161.8 239.6h-37c-8 0-14.5 6.5-14.5 14.5v11.1c0 8 6.5 14.5 14.5 14.5h37c8 0 14.5-6.5 14.5-14.5v-11.1c0-8-6.5-14.5-14.5-14.5zm-.5 25.1h-36v-10.1h36v10.1z"/>
	<path fill="#804284" d="M143.2 45.8c4.1 0 7.5-3.4 7.5-7.5V7.5c0-4.1-3.4-7.5-7.5-7.5s-7.5 3.4-7.5 7.5v30.8c0 4.1 3.4 7.5 7.5 7.5zM241.9 34.6c-2.9-3-7.6-3.1-10.6-.2l-22.8 21.7c-3 2.9-3.1 7.6-.2 10.6 1.5 1.5 3.4 2.3 5.4 2.3 1.9 0 3.7-.7 5.2-2.1l22.8-21.7c3-2.9 3.1-7.6.2-10.6zM264.3 109.6H235c-4.1 0-7.5 3.4-7.5 7.5s3.4 7.5 7.5 7.5h29.3c4.1 0 7.5-3.4 7.5-7.5 0-4.2-3.4-7.5-7.5-7.5zM74.4 64.7c2.9-3 2.7-7.7-.2-10.6L51.4 32.3c-3-2.9-7.7-2.7-10.6.2-2.9 3-2.7 7.7.2 10.6l22.8 21.7c1.5 1.4 3.3 2.1 5.2 2.1 1.9.1 3.9-.7 5.4-2.2zM44.7 109.6H15.4c-4.1 0-7.5 3.4-7.5 7.5s3.3 7.5 7.5 7.5h29.3c4.1 0 7.5-3.4 7.5-7.5s-3.3-7.4-7.5-7.5z"/>
</symbol>
<symbol id="icon-inst" viewBox="0 0 300 300">
	<path d="M38.52.012h222.978C282.682.012 300 17.336 300 38.52v222.978c0 21.178-17.318 38.49-38.502 38.49H38.52c-21.184 0-38.52-17.313-38.52-38.49V38.52C0 17.336 17.336.012 38.52.012zm180.026 33.317c-7.438 0-13.505 6.091-13.505 13.525v32.314c0 7.437 6.067 13.514 13.505 13.514h33.903c7.426 0 13.506-6.077 13.506-13.514V46.854c0-7.434-6.08-13.525-13.506-13.525h-33.903zm47.538 93.539h-26.396a87.715 87.715 0 013.86 25.759c0 49.882-41.766 90.34-93.266 90.34-51.487 0-93.254-40.458-93.254-90.34 0-8.963 1.37-17.584 3.861-25.759H33.35V253.6c0 6.563 5.359 11.902 11.916 11.902h208.907c6.563 0 11.911-5.339 11.911-11.902V126.868zm-115.801-35.89c-33.26 0-60.24 26.128-60.24 58.388 0 32.227 26.98 58.375 60.24 58.375 33.278 0 60.259-26.148 60.259-58.375 0-32.261-26.981-58.388-60.259-58.388z"/>
</symbol>
<symbol id="icon-inst2" viewBox="0 0 300 300">
	<path d="M38.52.012h222.978C282.682.012 300 17.336 300 38.52v222.978c0 21.178-17.318 38.49-38.502 38.49H38.52c-21.184 0-38.52-17.313-38.52-38.49V38.52C0 17.336 17.336.012 38.52.012zm180.026 33.317c-7.438 0-13.505 6.091-13.505 13.525v32.314c0 7.437 6.067 13.514 13.505 13.514h33.903c7.426 0 13.506-6.077 13.506-13.514V46.854c0-7.434-6.08-13.525-13.506-13.525h-33.903zm47.538 93.539h-26.396a87.715 87.715 0 013.86 25.759c0 49.882-41.766 90.34-93.266 90.34-51.487 0-93.254-40.458-93.254-90.34 0-8.963 1.37-17.584 3.861-25.759H33.35V253.6c0 6.563 5.359 11.902 11.916 11.902h208.907c6.563 0 11.911-5.339 11.911-11.902V126.868zm-115.801-35.89c-33.26 0-60.24 26.128-60.24 58.388 0 32.227 26.98 58.375 60.24 58.375 33.278 0 60.259-26.148 60.259-58.375 0-32.261-26.981-58.388-60.259-58.388z"/>
</symbol>
<symbol id="icon-ok" viewBox="0 0 512 512">
	<path d="M100.7 274.8c-13.1 25.7 1.8 38 35.6 59 28.8 17.8 68.6 24.3 94.1 26.9-10.5 10.1 37.5-36.1-100.7 96.9-29.3 28.1 17.9 73.2 47.2 45.7l79.3-76.5c30.4 29.2 59.5 57.2 79.3 76.6 29.3 27.6 76.5-17.1 47.5-45.7-2.2-2.1-107.5-103.1-101-96.9 25.9-2.6 65.1-9.5 93.5-26.9 33.9-21.1 48.7-33.4 35.8-59.1-7.8-14.6-28.8-26.8-56.7-5.7 0 0-37.7 28.9-98.6 28.9-60.9 0-98.6-28.9-98.6-28.9-27.9-21.2-49-8.9-56.7 5.7z"/>
	<path d="M256 259c74.2 0 134.8-58 134.8-129.4C390.8 58 330.2 0 256 0c-74.2 0-134.8 58-134.8 129.7C121.2 201 181.8 259 256 259zm0-193.3c36.5 0 66.2 28.6 66.2 64 0 35.1-29.7 63.7-66.2 63.7s-66.2-28.6-66.2-63.7c0-35.4 29.7-64 66.2-64z"/>
</symbol>
<symbol id="icon-ok2" viewBox="0 0 512 512">
	<path d="M100.7 274.8c-13.1 25.7 1.8 38 35.6 59 28.8 17.8 68.6 24.3 94.1 26.9-10.5 10.1 37.5-36.1-100.7 96.9-29.3 28.1 17.9 73.2 47.2 45.7l79.3-76.5c30.4 29.2 59.5 57.2 79.3 76.6 29.3 27.6 76.5-17.1 47.5-45.7-2.2-2.1-107.5-103.1-101-96.9 25.9-2.6 65.1-9.5 93.5-26.9 33.9-21.1 48.7-33.4 35.8-59.1-7.8-14.6-28.8-26.8-56.7-5.7 0 0-37.7 28.9-98.6 28.9-60.9 0-98.6-28.9-98.6-28.9-27.9-21.2-49-8.9-56.7 5.7z"/>
	<path d="M256 259c74.2 0 134.8-58 134.8-129.4C390.8 58 330.2 0 256 0c-74.2 0-134.8 58-134.8 129.7C121.2 201 181.8 259 256 259zm0-193.3c36.5 0 66.2 28.6 66.2 64 0 35.1-29.7 63.7-66.2 63.7s-66.2-28.6-66.2-63.7c0-35.4 29.7-64 66.2-64z"/>
</symbol>
<symbol id="icon-search-footer" viewBox="0 0 42 44">
	<style>
		.st0{fill:none;stroke:#647216;stroke-width:4;stroke-linecap:round;stroke-miterlimit:10}
	</style>
	<g id="Icon_3_">
		<path d="M29.3 31L40 42" class="st0"/>
		<ellipse cx="18.3" cy="18.1" class="st0" rx="16.3" ry="16.1"/>
	</g>
</symbol>
<symbol id="icon-search" viewBox="0 0 42 44">
	<style>
		.st0{fill:none;stroke:#929c5b;stroke-width:4;stroke-linecap:round;stroke-miterlimit:10}
	</style>
	<g id="Icon_3_">
		<path d="M29.3 31L40 42" class="st0"/>
		<ellipse cx="18.3" cy="18.1" class="st0" rx="16.3" ry="16.1"/>
	</g>
</symbol>
<symbol id="icon-vk" viewBox="0 0 512 512">
	<path d="M424.9 277.9c-8.3-10.5-5.9-15.1 0-24.4.1-.1 68.4-94.5 75.5-126.5 3.5-11.7 0-20.2-16.9-20.2h-56c-14.3 0-20.8 7.4-24.3 15.6 0 0-28.5 68.2-68.8 112.4-13 12.8-19 16.9-26.1 16.9-3.5 0-8.9-4.1-8.9-15.8v-109c0-14-4-20.2-15.8-20.2h-88c-8.9 0-14.3 6.5-14.3 12.6 0 13.3 20.2 16.3 22.3 53.7v81c0 17.7-3.2 21-10.4 21-19 0-65.2-68.5-92.6-146.9-5.5-15.2-10.9-21.4-25.3-21.4h-56C3.2 106.7 0 114 0 122.3c0 14.5 19 86.9 88.5 182.5C134.8 370 200 405.3 259.3 405.3c35.6 0 40-7.9 40-21.4 0-62.3-3.2-68.2 14.6-68.2 8.3 0 22.5 4.1 55.8 35.6 38 37.3 44.3 54 65.6 54h56c16 0 24-7.9 19.4-23.3-10.7-32.6-82.6-99.6-85.8-104.1z"/>
</symbol>
<symbol id="icon-vk2" viewBox="0 0 512 512">
	<path d="M424.9 277.9c-8.3-10.5-5.9-15.1 0-24.4.1-.1 68.4-94.5 75.5-126.5 3.5-11.7 0-20.2-16.9-20.2h-56c-14.3 0-20.8 7.4-24.3 15.6 0 0-28.5 68.2-68.8 112.4-13 12.8-19 16.9-26.1 16.9-3.5 0-8.9-4.1-8.9-15.8v-109c0-14-4-20.2-15.8-20.2h-88c-8.9 0-14.3 6.5-14.3 12.6 0 13.3 20.2 16.3 22.3 53.7v81c0 17.7-3.2 21-10.4 21-19 0-65.2-68.5-92.6-146.9-5.5-15.2-10.9-21.4-25.3-21.4h-56C3.2 106.7 0 114 0 122.3c0 14.5 19 86.9 88.5 182.5C134.8 370 200 405.3 259.3 405.3c35.6 0 40-7.9 40-21.4 0-62.3-3.2-68.2 14.6-68.2 8.3 0 22.5 4.1 55.8 35.6 38 37.3 44.3 54 65.6 54h56c16 0 24-7.9 19.4-23.3-10.7-32.6-82.6-99.6-85.8-104.1z"/>
</symbol>
<symbol id="map-label" viewBox="0 0 18 24">

	<path fill-rule="evenodd" d="M854 78.9a4.038 4.038 0 11-4.067 4.038A4.052 4.052 0 01854 78.9zm0 19.1s9-10.126 9-15.062a9 9 0 00-18 0C845 87.873 854 98 854 98zm0-21.232a6.17 6.17 0 11-6.213 6.17A6.191 6.191 0 01854 76.767z" data-name="Forma 1" filter="url(#map-label-a)" transform="translate(-845 -74)"/>
</symbol>
<symbol id="phone" viewBox="0 0 20 20">

	<path fill-rule="evenodd" d="M864.99 45.784a.97.97 0 01-.3.848l-2.816 2.8a1.587 1.587 0 01-.5.36 2.032 2.032 0 01-.6.191c-.014 0-.057 0-.127.011a2.724 2.724 0 01-.275.011 9.346 9.346 0 01-3.5-.816 18.4 18.4 0 01-2.954-1.621A22.043 22.043 0 01850.4 44.6a23.25 23.25 0 01-2.456-2.8 19.9 19.9 0 01-1.566-2.469 13.264 13.264 0 01-.89-2.055 11.048 11.048 0 01-.4-1.589 5.239 5.239 0 01-.088-1.048q.021-.381.021-.423a2.1 2.1 0 01.191-.605 1.6 1.6 0 01.36-.5l2.816-2.818a.932.932 0 01.677-.3.786.786 0 01.487.16 1.454 1.454 0 01.36.391l2.266 4.3a1.032 1.032 0 01.106.741 1.33 1.33 0 01-.36.679l-1.038 1.037a.354.354 0 00-.074.138.534.534 0 00-.032.159 3.825 3.825 0 00.382 1.017 9.206 9.206 0 00.783 1.24 13.759 13.759 0 001.5 1.684 14.03 14.03 0 001.694 1.515 9.92 9.92 0 001.238.795 3.345 3.345 0 00.763.307l.264.053a.488.488 0 00.138-.032.358.358 0 00.138-.074l1.206-1.229a1.3 1.3 0 01.89-.339 1.1 1.1 0 01.571.128h.021l4.087 2.415a1.064 1.064 0 01.535.706z" data-name="Forma 1" filter="url(#phone-a)" transform="translate(-845 -30)"/>
</symbol>
</svg>